STARTFONT 2.1
FONT -custom-icons--32-0-72-72-c-0-iso10646-1
SIZE 32 72 72
FONTBOUNDINGBOX 32 31 0 0
STARTPROPERTIES 2
FONT_ASCENT 31
FONT_DESCENT 0
ENDPROPERTIES
CHARS 6
STARTCHAR alarm
ENCODING 59477
SWIDTH 1000 0
DWIDTH 32 0
BBX 26 27 3 3
BITMAP
00000000
06001800
1F003E00
3C1E0F00
78FFC780
F3FFF3C0
E7C0F9C0
4F003C80
1E001E00
3C0C0F00
380C0700
300C0300
700C0380
700C0380
700C0380
700C0380
700E0380
70078380
7001C380
3800E700
38000700
1C000E00
1E001E00
0F003C00
07E1F800
01FFE000
00FF8000
ENDCHAR
STARTCHAR alarm_off
ENCODING 59478
SWIDTH 1000 0
DWIDTH 32 0
BBX 26 27 3 3
BITMAP
00000000
06001800
1F003E00
3C1E0F00
78FFC780
F3FFF3C0
E7C0F9C0
4F003C80
1E001E00
3C000F00
380C0700
300C0300
700C0380
700C0380
70FFC380
70FFC380
70FFC380
700C0380
700C0380
380C0700
380C0700
1C000E00
1E001E00
0F003C00
07E1F800
01FFE000
00FF8000
ENDCHAR
STARTCHAR notifications_active
ENCODING 59383
SWIDTH 1000 0
DWIDTH 32 0
BBX 26 26 3 3
BITMAP
000C0000
0C1E0C00
1E1E1E00
3C3F0F00
38FFC700
71FFE380
73FFF380
E3FFF1C0
E7FFF9C0
E7FFF9C0
C7FFF8C0
07FFF800
07FFF800
07FFF800
07FFF800
07FFF800
07FFF800
07FFF800
07FFF800
0FFFFC00
1FFFFE00
3FFFFF00
00000000
00000000
003F0000
001E0000
ENDCHAR
STARTCHAR notifications_paused
ENCODING 59384
SWIDTH 1000 0
DWIDTH 32 0
BBX 22 26 5 3
BITMAP
003000
007800
007800
00FC00
03FF00
07FF80
0FFFC0
0FFFC0
1F03E0
1F03E0
1FE3E0
1FC7E0
1F8FE0
1F8FE0
1F1FE0
1F03E0
1F03E0
1FFFE0
1FFFE0
3FFFF0
7FFFF8
FFFFFC
000000
000000
00FC00
007800
ENDCHAR
STARTCHAR timer
ENCODING 58405
SWIDTH 1000 0
DWIDTH 32 0
BBX 24 28 4 3
BITMAP
00FF00
00FF00
00FF00
000000
003C00
01FF84
07FFEE
0FFFFE
1FFFFC
3FFFFC
3FE7FE
7FE7FE
7FE7FE
FFE7FF
FFE7FF
FFE7FF
FFE7FF
FFE7FF
FFFFFF
FFFFFF
7FFFFE
7FFFFE
3FFFFC
3FFFFC
1FFFF8
0FFFF0
03FFC0
00FF00
ENDCHAR
STARTCHAR timer_off
ENCODING 58406
SWIDTH 1000 0
DWIDTH 32 0
BBX 26 29 2 2
BITMAP
003FC000
003FC000
003FC000
60000000
F0070000
787FE100
3C7FFB80
1E3FFF80
0F1FFF00
0F8FFF00
0FC1FF80
1FE1FF80
1FF1FF80
3FF8FFC0
3FFC7FC0
3FFE3FC0
3FFF1FC0
3FFF8FC0
3FFFC7C0
3FFFE3C0
1FFFF180
1FFFF880
0FFFFC00
0FFFFE00
07FFFF00
03FFFF80
00FFF3C0
003FC1C0
00000080
ENDCHAR
ENDFONT
