STARTFONT 2.1
FONT -custom-icons--48-0-72-72-c-0-iso10646-1
SIZE 48 72 72
FONTBOUNDINGBOX 48 46 0 0
STARTPROPERTIES 2
FONT_ASCENT 46
FONT_DESCENT 0
ENDPROPERTIES
CHARS 6
STARTCHAR alarm
ENCODING 59477
SWIDTH 1000 0
DWIDTH 48 0
BBX 40 40 4 4
BITMAP
00C0000300
01E0000780
03F0000FC0
07E00007E0
0FC0FF03F0
3F07FFE1FC
7E1FFFF87E
FC7FFFFE3F
78FF00FF1E
31FC003F8C
03F0000FC0
07E00007E0
07C03803E0
0F803801F0
0F003800F0
1F003800F8
1E00380078
1E00380078
3C0038003C
3C0038003C
3C0038003C
3C0038003C
3C0038003C
3C003E003C
3C001F003C
3C000FC03C
1E0003F078
1E0000F878
1F000030F8
0F000010F0
0F800001F0
07C00003E0
07E00007E0
03F0000FC0
01FC003F80
00FF00FF00
007FFFFE00
001FFFF800
0007FFE000
0000FF0000
ENDCHAR
STARTCHAR alarm_off
ENCODING 59478
SWIDTH 1000 0
DWIDTH 48 0
BBX 40 40 4 4
BITMAP
00C0000300
01E0000780
03F0000FC0
07E00007E0
0FC0FF03F0
3F07FFE1FC
7E1FFFF87E
FC7FFFFE3F
78FF00FF1E
31FC003F8C
03F0000FC0
07E00007E0
07C00003E0
0F800001F0
0F003C00F0
1F003C00F8
1E003C0078
1E003C0078
3C003C003C
3C003C003C
3C0FFFF03C
3C0FFFF03C
3C0FFFF03C
3C0FFFF03C
3C003C003C
3C003C003C
1E003C0078
1E003C0078
1F003C00F8
0F003C00F0
0F800001F0
07C00003E0
07E00007E0
03F0000FC0
01FC003F80
00FF00FF00
007FFFFE00
001FFFF800
0007FFE000
0000FF0000
ENDCHAR
STARTCHAR notifications_active
ENCODING 59383
SWIDTH 1000 0
DWIDTH 48 0
BBX 40 39 4 4
BITMAP
00003C0000
01807E0180
03E07E03C0
07E07E07E0
0FC07E03F0
1F83FFC1F8
1F07FFE0F8
3E1FFFF07C
3E1FFFF87C
7C3FFFFC3E
7C7FFFFE3E
787FFFFE1E
F87FFFFE1F
F0FFFFFF0F
F0FFFFFF0F
F0FFFFFF0F
00FFFFFF00
00FFFFFF00
00FFFFFF00
00FFFFFF00
00FFFFFF00
00FFFFFF00
00FFFFFF00
00FFFFFF00
00FFFFFF00
00FFFFFF00
00FFFFFF00
01FFFFFF80
03FFFFFFC0
07FFFFFFE0
0FFFFFFFF0
0FFFFFFFF0
0FFFFFFFF0
0000000000
0000000000
0000FF0000
0000FF0000
00007E0000
00003C0000
ENDCHAR
STARTCHAR notifications_paused
ENCODING 59384
SWIDTH 1000 0
DWIDTH 48 0
BBX 32 39 8 4
BITMAP
0003C000
0007E000
0007E000
0007E000
0007E000
003FFC00
007FFE00
01FFFF00
01FFFF80
03FFFFC0
07FFFFE0
07E007E0
07E007E0
0FE007F0
0FE007F0
0FFF0FF0
0FFE1FF0
0FFC1FF0
0FF83FF0
0FF87FF0
0FF0FFF0
0FE007F0
0FE007F0
0FE007F0
0FE007F0
0FFFFFF0
0FFFFFF0
1FFFFFF8
3FFFFFFC
7FFFFFFE
FFFFFFFF
FFFFFFFF
FFFFFFFF
00000000
00000000
000FF000
000FF000
0007E000
0003C000
ENDCHAR
STARTCHAR timer
ENCODING 58405
SWIDTH 1000 0
DWIDTH 48 0
BBX 36 42 6 4
BITMAP
000FFF0000
000FFF0000
000FFF0000
000FFF0000
0000000000
0000000000
0003FC0000
001FFF8080
007FFFE1C0
01FFFFFBE0
03FFFFFFC0
07FFFFFF80
0FFFFFFF00
1FFFFFFF80
1FFF0FFF80
3FFF0FFFC0
3FFF0FFFC0
7FFF0FFFE0
7FFF0FFFE0
7FFF0FFFE0
FFFF0FFFF0
FFFF0FFFF0
FFFF0FFFF0
FFFF0FFFF0
FFFF0FFFF0
FFFF0FFFF0
FFFFFFFFF0
FFFFFFFFF0
7FFFFFFFE0
7FFFFFFFE0
7FFFFFFFE0
3FFFFFFFC0
3FFFFFFFC0
1FFFFFFF80
1FFFFFFF80
0FFFFFFF00
07FFFFFE00
03FFFFFC00
01FFFFF800
007FFFE000
001FFF8000
0003FC0000
ENDCHAR
STARTCHAR timer_off
ENCODING 58406
SWIDTH 1000 0
DWIDTH 48 0
BBX 39 43 3 3
BITMAP
0001FFE000
0001FFE000
0001FFE000
0001FFE000
3000000000
7800000000
FC007F8000
7E03FFF010
3F07FFFC38
1F83FFFF7C
0FC1FFFFF8
07E0FFFFF0
03F07FFFE0
03F83FFFF0
03FC01FFF0
07FE01FFF8
07FF01FFF8
0FFF81FFFC
0FFFC1FFFC
0FFFE0FFFC
1FFFF07FFE
1FFFF83FFE
1FFFFC1FFE
1FFFFE0FFE
1FFFFF07FE
1FFFFF83FE
1FFFFFC1FE
1FFFFFE0FE
0FFFFFF07C
0FFFFFF83C
0FFFFFFC1C
07FFFFFE08
07FFFFFF00
03FFFFFF80
03FFFFFFC0
01FFFFFFE0
00FFFFFFF0
007FFFFFF8
003FFFFFFC
000FFFFC7E
0003FFF03E
00007F801C
0000000008
ENDCHAR
ENDFONT
